<?xml version="1.0" encoding="UTF-8" standalone="no"?>
<svg width="60px" height="60px" viewBox="0 0 60 60" version="1.1" xmlns="http://www.w3.org/2000/svg" xmlns:xlink="http://www.w3.org/1999/xlink" xmlns:sketch="http://www.bohemiancoding.com/sketch/ns">
    <!-- Generator: Sketch 3.2.2 (9983) - http://www.bohemiancoding.com/sketch -->
    <title>iCloud</title>
    <desc>Created with Sketch.</desc>
    <defs></defs>
    <g id="stroked" stroke="none" stroke-width="1" fill="none" fill-rule="evenodd" sketch:type="MSPage">
        <g id="Brands" sketch:type="MSLayerGroup" transform="translate(-597.000000, -716.000000)" stroke="#ffffff" stroke-width="2" stroke-linecap="round" stroke-linejoin="round">
            <g id="iCloud" transform="translate(602.000000, 725.000000)" sketch:type="MSShapeGroup">
                <path d="M9.11230908,13.1613505 C3.93660438,14.0564544 0,18.5685056 0,24 C0,30.0751322 4.92486775,35 11,35 L42,35 L42,34.955157 L42,34.955157 C47.6065,34.4499282 52,29.7380426 52,24 C52,18.2467792 47.583226,13.5251513 41.9554838,13.0409221 L41.9554802,13.0409218 C41.9849567,12.6978681 42,12.3506908 42,12 C42,5.372583 36.627417,0 30,0 C24.9875837,0 20.6929484,3.07318571 18.8975225,7.43812871 C17.8490386,6.54148598 16.4877547,6 15,6 C11.6862915,6 9,8.6862915 9,12 C9,12.3973199 9.03861937,12.7856197 9.11230908,13.1613505 Z" id="Oval-1963"></path>
            </g>
        </g>
    </g>
</svg>