<?xml version="1.0" encoding="iso-8859-1"?>
<!DOCTYPE svg PUBLIC "-//W3C//DTD SVG 1.1//EN" "http://www.w3.org/Graphics/SVG/1.1/DTD/svg11.dtd">
<svg 
 version="1.1" xmlns="http://www.w3.org/2000/svg" xmlns:xlink="http://www.w3.org/1999/xlink" x="0px" y="0px" width="512px"
	 height="512px" viewBox="0 0 512 512" style="enable-background:new 0 0 512 512;" xml:space="preserve"
><g fill="#ffffff" id="7935ec95c421cee6d86eb22ecd13a679"><g fill="#ffffff"></g><path style="display: inline;" d="M13.947,108.079c0-0.977,0.19-1.902,0.29-2.853c-0.173-1.271-0.29-2.558-0.29-3.871V34.118
		C13.947,15.55,32.007,0.5,54.289,0.5h161.369C237.94,0.5,256,15.55,256,34.118v47.066h215.158
		c14.854,0,26.895,12.039,26.895,26.895v26.895v53.789v7.28c-7.922-4.601-17.093-7.28-26.895-7.28H282.895v-20.171
		c0-33.366-30.163-60.513-67.237-60.513H54.289c-15.144,0-29.089,4.585-40.342,12.218V108.079z M498.053,511.5V242.553
		c0-14.855-12.04-26.895-26.895-26.895H256v-47.066c0-18.569-18.06-33.618-40.343-33.618H54.289
		c-22.282,0-40.342,15.049-40.342,33.618V511.5H498.053z"></path></g></svg>